<svg xmlns="http://www.w3.org/2000/svg" version="1.1" xmlns:xlink="http://www.w3.org/1999/xlink" width="64" height="64"><svg xmlns="http://www.w3.org/2000/svg" viewBox="0 0 64 64" width="64" height="64" aria-labelledby="moonYurtTitle" role="img">
  <title id="SvgjsTitle1001">Lunar calendar — crescent moon with yurt motif and golden sun</title>

  <!-- Main crescent moon -->
  <path fill="currentColor" d="M38.9 8.6a20.8 20.8 0 1 0 8.5 39.4c.6-1.7-.9-3.2-2.6-3A15.8 15.8 0 1 1 41 15c.3-1.6-1.3-3-2.8-2.4z"></path>

  <!-- Yurt motif -->
  <g stroke="#D4AF37" stroke-width="1.4" stroke-linecap="round" stroke-linejoin="round" fill="none">
    <path d="M18 38c6-6 28-6 34 0"></path>
    <path d="M24 34c4-3 16-3 20 0"></path>
    <path d="M32 30v-6"></path>
  </g>

  <!-- Golden sun (moved further right again) -->
  <g transform="translate(49,10)">
    <circle r="3" fill="#D4AF37"></circle>
    <g stroke="#D4AF37" stroke-width="0.9" stroke-linecap="round">
      <line x1="0" y1="-5" x2="0" y2="-7"></line>
      <line x1="0" y1="5" x2="0" y2="7"></line>
      <line x1="-5" y1="0" x2="-7" y2="0"></line>
      <line x1="5" y1="0" x2="7" y2="0"></line>
      <line x1="3.5" y1="-3.5" x2="5" y2="-5"></line>
      <line x1="3.5" y1="3.5" x2="5" y2="5"></line>
      <line x1="-3.5" y1="-3.5" x2="-5" y2="-5"></line>
      <line x1="-3.5" y1="3.5" x2="-5" y2="5"></line>
    </g>
  </g>
</svg><style>@media (prefers-color-scheme: light) { :root { filter: none; } }
@media (prefers-color-scheme: dark) { :root { filter: none; } }
</style></svg>