<?xml version="1.0" standalone="no"?>
<!DOCTYPE svg PUBLIC "-//W3C//DTD SVG 20010904//EN"
 "http://www.w3.org/TR/2001/REC-SVG-20010904/DTD/svg10.dtd">
<svg version="1.0" xmlns="http://www.w3.org/2000/svg"
 width="256.000000pt" height="256.000000pt" viewBox="0 0 256.000000 256.000000"
 preserveAspectRatio="xMidYMid meet">
<metadata>
Created by potrace 1.14, written by Peter Selinger 2001-2017
</metadata>
<g transform="translate(0.000000,256.000000) scale(0.100000,-0.100000)"
fill="#000000" stroke="none">
<path d="M1249 2529 c-18 -16 -36 -29 -41 -29 -16 0 -29 -50 -17 -71 8 -15 6
-27 -10 -53 -12 -18 -21 -42 -21 -53 0 -11 -6 -20 -12 -20 -113 -6 -321 -87
-449 -174 -53 -35 -57 -37 -73 -21 -9 9 -26 18 -36 18 -11 1 -25 2 -30 3 -6 0
-15 12 -20 26 -12 32 -49 47 -90 35 -17 -5 -39 -7 -50 -5 -11 2 -20 -2 -21 -8
0 -7 -2 -38 -5 -69 -6 -56 -5 -58 25 -75 17 -10 31 -22 32 -28 2 -30 9 -49 25
-66 17 -18 16 -21 -13 -62 -33 -47 -91 -148 -92 -160 0 -4 -8 -21 -16 -37 -9
-17 -25 -60 -36 -97 -22 -69 -22 -71 -34 -141 -5 -32 -11 -42 -23 -41 -10 2
-32 -7 -51 -19 -25 -15 -39 -18 -52 -11 -36 19 -48 12 -105 -59 l-27 -33 22
-23 c11 -12 21 -26 21 -30 0 -14 42 -46 60 -46 9 0 20 4 25 9 6 6 29 1 59 -14
27 -13 53 -22 58 -19 8 5 9 2 14 -46 9 -101 89 -299 164 -410 37 -55 40 -62
26 -76 -9 -8 -17 -22 -17 -30 -1 -8 -3 -18 -4 -24 -1 -5 -3 -14 -4 -19 0 -6
-13 -16 -28 -23 -24 -12 -28 -20 -29 -58 -1 -76 7 -94 47 -97 19 -2 43 -4 54
-7 28 -5 54 11 65 40 7 16 17 24 34 24 13 0 34 8 47 19 23 18 23 18 80 -20 31
-22 61 -39 67 -39 6 0 12 -4 14 -8 5 -13 188 -89 248 -103 64 -15 66 -15 103
-17 20 -2 27 -7 27 -23 0 -12 9 -36 20 -54 16 -26 18 -38 10 -60 -10 -26 1
-65 18 -65 4 0 23 -13 42 -30 19 -16 37 -26 40 -22 3 4 24 22 48 41 42 32 54
65 32 87 -6 6 -2 22 13 44 13 19 23 44 22 54 0 16 12 22 70 33 156 32 341 113
422 186 20 18 23 18 38 4 9 -9 34 -21 55 -27 30 -8 40 -16 40 -31 0 -24 41
-42 78 -32 15 3 37 7 51 8 25 1 24 0 35 95 4 34 -11 60 -34 60 -19 0 -36 32
-32 61 2 9 -4 22 -13 29 -21 17 -19 34 9 67 55 66 143 260 160 353 22 122 19
114 55 121 18 4 36 11 40 16 9 13 38 23 45 15 19 -18 56 -11 73 14 10 14 26
33 36 42 28 27 22 44 -41 110 -17 18 -29 22 -45 17 -35 -11 -58 -7 -78 11 -10
9 -29 17 -41 18 -19 1 -23 10 -34 66 -26 142 -117 351 -184 423 -18 19 -18 22
-4 38 8 9 17 33 21 52 3 23 12 39 24 42 37 12 50 35 43 73 -4 20 -7 47 -8 61
-1 21 -6 25 -36 27 -19 1 -47 4 -62 7 -21 4 -32 0 -47 -19 -11 -14 -21 -29
-23 -34 -2 -4 -18 -10 -35 -13 -18 -3 -40 -13 -49 -21 -16 -16 -27 -13 -54 14
-15 15 -90 59 -90 53 0 -5 -4 -3 -8 4 -9 14 -107 58 -186 84 -60 19 -87 26
-141 35 -47 8 -50 10 -53 38 -1 15 -11 36 -21 48 -15 15 -18 25 -11 39 17 30
11 57 -16 76 -14 10 -36 28 -49 40 l-23 22 -33 -30z m-73 -505 c20 -20 20 -23
6 -78 -13 -52 -12 -59 3 -76 11 -13 13 -20 5 -25 -6 -4 -9 -14 -6 -22 4 -9 2
-21 -4 -29 -8 -9 -8 -25 1 -56 14 -49 13 -61 -7 -105 -17 -38 -39 -44 -79 -23
-36 18 -53 37 -66 72 -6 15 -20 30 -32 34 -12 4 -25 12 -29 18 -4 6 -13 11
-20 11 -7 0 -14 7 -14 15 -1 8 -2 20 -3 26 0 6 -13 17 -28 23 -48 20 -65 39
-70 74 -4 33 -1 36 48 67 29 18 58 33 64 34 5 1 16 6 24 10 22 14 151 53 170
52 9 -1 25 -10 37 -22z m279 16 c88 -22 123 -35 185 -68 86 -45 98 -56 92 -90
-5 -30 -22 -48 -67 -74 -19 -10 -31 -26 -33 -43 -2 -14 -9 -24 -15 -23 -7 2
-13 -2 -14 -7 -1 -6 -12 -12 -25 -15 -14 -4 -34 -25 -52 -57 -21 -36 -34 -50
-47 -48 -10 2 -23 -3 -29 -10 -20 -24 -54 1 -68 48 -11 35 -10 49 2 84 13 36
13 43 0 62 -9 12 -11 21 -4 21 7 0 6 6 -2 19 -9 15 -8 22 4 34 14 14 14 21 0
71 -14 50 -13 56 2 71 9 9 16 21 16 26 0 11 6 11 55 -1z m-715 -360 c17 -29
34 -46 49 -48 13 -2 26 -12 28 -23 3 -10 12 -19 20 -19 8 0 12 -4 8 -10 -7
-11 14 -31 65 -64 19 -12 35 -29 35 -38 0 -8 6 -22 13 -31 17 -21 -1 -57 -28
-57 -11 0 -20 -4 -20 -10 0 -13 -34 -13 -81 1 -20 7 -46 8 -56 4 -29 -12 -83
-15 -83 -5 0 13 -30 12 -84 -2 -38 -10 -46 -9 -61 5 -9 9 -20 17 -25 17 -9 0
6 87 20 112 6 10 10 24 10 31 0 17 49 117 68 140 8 9 12 17 8 17 -4 0 -1 6 6
14 7 8 28 14 47 13 30 -2 38 -8 61 -47z m1200 18 c10 -18 24 -38 29 -45 6 -7
11 -17 11 -24 0 -6 6 -23 14 -37 23 -46 34 -75 47 -129 12 -50 12 -53 -12 -72
-24 -21 -41 -22 -112 -5 -19 5 -34 1 -47 -11 -13 -12 -20 -14 -20 -5 0 7 -7
10 -16 6 -9 -4 -23 -1 -31 5 -10 9 -27 9 -69 -1 -43 -11 -60 -11 -75 -2 -10 7
-25 12 -32 12 -22 0 -39 46 -22 60 8 6 15 21 17 32 2 13 19 29 46 42 24 12 45
30 48 43 3 12 12 24 20 27 8 3 14 12 14 21 0 9 9 15 23 15 16 0 28 11 42 37
28 51 42 63 76 63 22 0 34 -8 49 -32z m-1285 -524 c22 -4 35 -2 35 4 0 12 52
9 83 -3 9 -4 27 -4 40 -1 46 14 85 17 92 7 3 -6 17 -11 29 -11 26 0 40 -32 26
-59 -5 -9 -11 -24 -14 -34 -3 -10 -20 -25 -37 -35 -41 -22 -71 -50 -64 -61 2
-5 -4 -11 -15 -14 -13 -3 -18 -11 -14 -20 4 -11 -2 -16 -22 -19 -15 -2 -32
-12 -38 -23 -31 -56 -48 -73 -76 -77 -25 -4 -35 0 -49 21 -56 82 -135 301
-110 310 5 1 15 9 22 17 12 14 20 14 112 -2z m1089 1 c10 -4 40 -3 68 4 60 13
71 14 64 2 -11 -17 17 -18 70 -3 48 14 54 13 78 -4 19 -14 24 -25 21 -44 -3
-14 -7 -34 -9 -45 -12 -62 -73 -198 -109 -242 -26 -34 -96 -2 -113 50 -10 30
-26 45 -46 39 -12 -3 -18 1 -18 12 0 9 -7 19 -15 22 -8 4 -15 14 -15 23 0 11
-20 29 -50 45 -30 17 -50 34 -50 45 0 9 -5 22 -11 28 -5 5 -7 21 -4 35 10 38
85 56 139 33z m-570 -248 c-3 -8 2 -19 9 -26 14 -11 11 -47 -8 -93 -4 -10 -4
-26 0 -35 5 -10 7 -25 6 -35 -1 -9 3 -19 9 -23 8 -5 6 -13 -6 -26 -16 -18 -16
-23 -2 -73 14 -51 14 -54 -8 -79 -15 -18 -29 -25 -46 -22 -56 11 -159 49 -223
84 -64 34 -70 40 -71 70 0 24 7 39 29 57 16 13 35 24 42 24 8 0 19 9 25 20 6
11 7 20 3 20 -13 0 42 47 63 54 10 3 30 26 43 51 14 27 31 45 41 45 10 0 23 7
30 15 11 13 15 13 41 0 16 -9 26 -21 23 -28z m302 11 c13 8 26 -3 53 -48 17
-27 38 -50 46 -50 8 0 15 -4 15 -9 0 -5 9 -13 20 -16 11 -3 20 -15 20 -25 0
-17 23 -37 75 -66 11 -6 22 -25 26 -43 5 -26 2 -35 -19 -51 -57 -45 -198 -103
-284 -115 -20 -3 -28 1 -33 15 -4 11 -11 20 -16 20 -10 0 -5 42 9 82 10 27 5
58 -9 58 -5 0 -9 7 -9 15 0 8 3 15 8 15 12 0 16 96 4 114 -4 6 -7 20 -6 31 4
77 41 118 78 86 10 -9 20 -15 22 -13z"/>
</g>
</svg>
